<svg id="ICON_-_GENRE" data-name="ICON - GENRE" xmlns="http://www.w3.org/2000/svg" width="30" height="30" viewBox="0 0 30 30">
  <rect id="Rectangle_2728" data-name="Rectangle 2728" width="30" height="30" fill="none"/>
  <g id="Group_53" data-name="Group 53" transform="translate(122.2 -139.956)">
    <path id="Path_31622" data-name="Path 31622" d="M-103.859,169.668a17.327,17.327,0,0,1-4.217-.692,25.705,25.705,0,0,1-5-2.006,8.575,8.575,0,0,1-3.776-3.992,41.8,41.8,0,0,1-2.686-7.245c-.589-2.115-1.095-4.252-1.621-6.384a1.014,1.014,0,0,1,1.083-1.344,29.979,29.979,0,0,0,10.567-1.912,29.59,29.59,0,0,0,8.122-4.707c.058-.047.116-.094.175-.14a1.016,1.016,0,0,1,1.657.339c.95,1.872,1.915,3.738,2.808,5.638a39.646,39.646,0,0,1,2.664,7.049,18.134,18.134,0,0,1,.483,2.8,7.292,7.292,0,0,1-.741,3.408,21.633,21.633,0,0,1-4.443,6.934c-.222.23-.46.446-.7.655A5.826,5.826,0,0,1-103.859,169.668Zm-15.048-19.635c.02.093.027.143.041.192.65,2.352,1.261,4.715,1.962,7.052a27.233,27.233,0,0,0,2.212,5.406,5.591,5.591,0,0,0,2.039,2.16,20.244,20.244,0,0,0,8.324,2.771,4.548,4.548,0,0,0,3.948-1.466A19.749,19.749,0,0,0-96,159.117a5.06,5.06,0,0,0,.282-2.86c-.187-.853-.379-1.709-.647-2.538a64.138,64.138,0,0,0-3.765-8.812c-.222-.446-.455-.888-.694-1.352A31.123,31.123,0,0,1-118.907,150.032Z" transform="translate(0 0)" fill="#f1f1f1"/>
    <path id="Path_31623" data-name="Path 31623" d="M24.7,358.031a9.965,9.965,0,0,1-3.36-.814,1.055,1.055,0,1,1,.794-1.954,6.955,6.955,0,0,0,2.879.587,2.412,2.412,0,0,0,1.445-.566,6.667,6.667,0,0,0,1.651-2.117,1.052,1.052,0,0,1,1.252-.6,1,1,0,0,1,.712,1.318,6.716,6.716,0,0,1-3.766,3.844A10.021,10.021,0,0,1,24.7,358.031Z" transform="translate(-129.909 -193.619)" fill="#f1f1f1"/>
    <path id="Path_31624" data-name="Path 31624" d="M63.808,241.25c.545.118,1.1.213,1.632.362a1.034,1.034,0,0,1,.739,1.311,1.088,1.088,0,0,1-1.333.719,6.27,6.27,0,0,0-1.388-.2,2.324,2.324,0,0,0-1.9,1.243,1.184,1.184,0,0,1-.937.638A1.029,1.029,0,0,1,59.6,243.87,4.643,4.643,0,0,1,63.808,241.25Z" transform="translate(-165.393 -91.766)" fill="#f1f1f1"/>
    <path id="Path_31625" data-name="Path 31625" d="M-51.155,283.083c.27.059.81.153,1.336.3a1.033,1.033,0,0,1,.778,1.313,1.082,1.082,0,0,1-1.389.709,5.338,5.338,0,0,0-1.293-.187,2.339,2.339,0,0,0-1.939,1.245,1.17,1.17,0,0,1-1,.644,1.03,1.03,0,0,1-.954-1.482A4.631,4.631,0,0,1-51.155,283.083Z" transform="translate(-59.925 -130.039)" fill="#f1f1f1"/>
  </g>
</svg>
