<svg id="Group_46" data-name="Group 46" xmlns="http://www.w3.org/2000/svg" width="25.924" height="29.165" viewBox="0 0 25.924 29.165">
  <path id="Path_31617" data-name="Path 31617" d="M-649.69-72.457h-2.888c-.395,0-.717.49-.717,1.093V-62.9h4.321v-8.469C-648.974-71.967-649.3-72.457-649.69-72.457Z" transform="translate(664.097 92.06)" fill="#f1f1f1" />
  <path id="Path_31618" data-name="Path 31618" d="M-636.323-77.182l-8.635-7.779a4.288,4.288,0,0,0-2.875-1.108,4.286,4.286,0,0,0-2.873,1.108l-8.636,7.779a4.407,4.407,0,0,0-1.453,3.277v12.619a4.355,4.355,0,0,0,4.328,4.383h4.313v-8.61a3,3,0,0,1,2.878-3.112h2.888a3,3,0,0,1,2.876,3.112v8.61h4.315a4.354,4.354,0,0,0,4.326-4.383V-73.905A4.405,4.405,0,0,0-636.323-77.182Z" transform="translate(660.795 86.068)" fill="#f1f1f1" />
</svg>